HIERARCHY
ROOT hip
{
  OFFSET 11.3 83.8927 39.6682
  CHANNELS 6 Xposition Yposition Zposition Zrotation Xrotation Yrotation
  JOINT abdomen
  {
    OFFSET 0 20.6881 -0.73152
    CHANNELS 3 Zrotation Xrotation Yrotation
    JOINT chest
    {
      OFFSET 0 11.7043 -0.48768
      CHANNELS 3 Zrotation Xrotation Yrotation
      JOINT neck
      {
        OFFSET 0 22.1894 -2.19456
        CHANNELS 3 Zrotation Xrotation Yrotation
        JOINT head
        {
          OFFSET -0.24384 7.07133 1.2192
          CHANNELS 3 Zrotation Xrotation Yrotation
          JOINT leftEye
          {
            OFFSET 4.14528 8.04674 8.04672
            CHANNELS 3 Zrotation Xrotation Yrotation
            End Site
            {
              OFFSET 1 0 0
            }
          }
          JOINT rightEye
          {
            OFFSET -3.6576 8.04674 8.04672
            CHANNELS 3 Zrotation Xrotation Yrotation
            End Site
            {
              OFFSET 1 0 0
            }
          }
        }
      }
      JOINT rCollar
      {
        OFFSET -2.68224 19.2634 -4.8768
        CHANNELS 3 Zrotation Xrotation Yrotation
        JOINT rShldr
        {
          OFFSET -8.77824 -1.95073 1.46304
          CHANNELS 3 Zrotation Xrotation Yrotation
          JOINT rForeArm
          {
            OFFSET -28.1742 -1.7115 0.48768
            CHANNELS 3 Zrotation Xrotation Yrotation
            JOINT rHand
            {
              OFFSET -22.5879 0.773209 7.07136
              CHANNELS 3 Zrotation Xrotation Yrotation
              JOINT rThumb1
              {
                OFFSET -1.2192 -0.487915 3.41376
                CHANNELS 3 Zrotation Xrotation Yrotation
                JOINT rThumb2
                {
                  OFFSET -3.37035 -0.52449 3.41376
                  CHANNELS 3 Zrotation Xrotation Yrotation
                  End Site
                  {
                    OFFSET -1.78271 -1.18214 1.43049
                  }
                }
              }
              JOINT rIndex1
              {
                OFFSET -7.75947 0.938293 5.60832
                CHANNELS 3 Zrotation Xrotation Yrotation
                JOINT rIndex2
                {
                  OFFSET -2.54057 -0.884171 1.56538
                  CHANNELS 3 Zrotation Xrotation Yrotation
                  End Site
                  {
                    OFFSET -1.62519 -0.234802 1.16502
                  }
                }
              }
              JOINT rMid1
              {
                OFFSET -8.24714 1.18213 3.41376
                CHANNELS 3 Zrotation Xrotation Yrotation
                JOINT rMid2
                {
                  OFFSET -3.10165 -0.590103 1.0647
                  CHANNELS 3 Zrotation Xrotation Yrotation
                  End Site
                  {
                    OFFSET -2.48547 -0.328903 0.83742
                  }
                }
              }
              JOINT rRing1
              {
                OFFSET -8.82822 0.546677 1.51678
                CHANNELS 3 Zrotation Xrotation Yrotation
                JOINT rRing2
                {
                  OFFSET -2.60934 -0.819778 -0.0198488
                  CHANNELS 3 Zrotation Xrotation Yrotation
                  End Site
                  {
                    OFFSET -2.33842 -0.294052 0.168128
                  }
                }
              }
              JOINT rPinky1
              {
                OFFSET -8.27202 -0.0477905 -0.4584
                CHANNELS 3 Zrotation Xrotation Yrotation
                JOINT rPinky2
                {
                  OFFSET -1.82734 -0.647385 -0.700984
                  CHANNELS 3 Zrotation Xrotation Yrotation
                  End Site
                  {
                    OFFSET -1.69225 -0.51767 -0.607171
                  }
                }
              }
            }
          }
        }
      }
      JOINT lCollar
      {
        OFFSET 2.68224 19.2634 -4.8768
        CHANNELS 3 Zrotation Xrotation Yrotation
        JOINT lShldr
        {
          OFFSET 8.77824 -1.95073 1.46304
          CHANNELS 3 Zrotation Xrotation Yrotation
          JOINT lForeArm
          {
            OFFSET 28.1742 -1.7115 0.48768
            CHANNELS 3 Zrotation Xrotation Yrotation
            JOINT lHand
            {
              OFFSET 22.5879 0.773209 7.07136
              CHANNELS 3 Zrotation Xrotation Yrotation
              JOINT lThumb1
              {
                OFFSET 1.2192 -0.487915 3.41376
                CHANNELS 3 Zrotation Xrotation Yrotation
                JOINT lThumb2
                {
                  OFFSET 3.37035 -0.52449 3.41376
                  CHANNELS 3 Zrotation Xrotation Yrotation
                  End Site
                  {
                    OFFSET 1.78271 -1.18214 1.43049
                  }
                }
              }
              JOINT lIndex1
              {
                OFFSET 7.75947 0.938293 5.60832
                CHANNELS 3 Zrotation Xrotation Yrotation
                JOINT lIndex2
                {
                  OFFSET 2.54057 -0.884171 1.56538
                  CHANNELS 3 Zrotation Xrotation Yrotation
                  End Site
                  {
                    OFFSET 1.62519 -0.234802 1.16502
                  }
                }
              }
              JOINT lMid1
              {
                OFFSET 8.24714 1.18213 3.41376
                CHANNELS 3 Zrotation Xrotation Yrotation
                JOINT lMid2
                {
                  OFFSET 3.10165 -0.590103 1.0647
                  CHANNELS 3 Zrotation Xrotation Yrotation
                  End Site
                  {
                    OFFSET 2.48547 -0.328903 0.83742
                  }
                }
              }
              JOINT lRing1
              {
                OFFSET 8.82822 0.546677 1.51678
                CHANNELS 3 Zrotation Xrotation Yrotation
                JOINT lRing2
                {
                  OFFSET 2.60934 -0.819778 -0.0198488
                  CHANNELS 3 Zrotation Xrotation Yrotation
                  End Site
                  {
                    OFFSET 2.33842 -0.294052 0.168128
                  }
                }
              }
              JOINT lPinky1
              {
                OFFSET 8.27202 -0.0477905 -0.4584
                CHANNELS 3 Zrotation Xrotation Yrotation
                JOINT lPinky2
                {
                  OFFSET 1.82734 -0.647385 -0.700984
                  CHANNELS 3 Zrotation Xrotation Yrotation
                  End Site
                  {
                    OFFSET 1.69225 -0.51767 -0.607171
                  }
                }
              }
            }
          }
        }
      }
    }
  }
  JOINT rButtock
  {
    OFFSET -8.77824 4.35084 1.2192
    CHANNELS 3 Zrotation Xrotation Yrotation
    JOINT rThigh
    {
      OFFSET 0 -1.70687 -2.19456
      CHANNELS 3 Zrotation Xrotation Yrotation
      JOINT rShin
      {
        OFFSET 0 -36.8199 0.73152
        CHANNELS 3 Zrotation Xrotation Yrotation
        JOINT rFoot
        {
          OFFSET 0.73152 -45.1104 -5.12064
          CHANNELS 3 Zrotation Xrotation Yrotation
          End Site
          {
            OFFSET -1.1221 -3.69964 12.103
          }
        }
      }
    }
  }
  JOINT lButtock
  {
    OFFSET 8.77824 4.35084 1.2192
    CHANNELS 3 Zrotation Xrotation Yrotation
    JOINT lThigh
    {
      OFFSET 0 -1.70687 -2.19456
      CHANNELS 3 Zrotation Xrotation Yrotation
      JOINT lShin
      {
        OFFSET 0 -36.8199 0.73152
        CHANNELS 3 Zrotation Xrotation Yrotation
        JOINT lFoot
        {
          OFFSET -0.73152 -45.1104 -5.12064
          CHANNELS 3 Zrotation Xrotation Yrotation
          End Site
          {
            OFFSET 1.1221 -3.69964 12.103
          }
        }
      }
    }
  }
}
MOTION
Frames:	6
Frame Time:	0.00833333
11.9762 84.7178 41.1173 0.35163 -0.000724134 -0.00600552 -0.462531 -0.00207376 -0.013201 -0.127532 -0.0031585 -0.0220954 -1.25602e-014 -7.95139e-016 -7.45443e-017 -3.77536e-014 3.18055e-015 -2.45375e-016 -0 0 0 -0 0 0 -6.31294e-015 3.88251e-019 9.93923e-017 -1.29677e-013 8.69683e-017 -3.97569e-016 -2.27479e-012 6.8362e-013 9.54166e-015 -2.60549e-011 -6.7716e-013 -2.16278e-013 -6.14566e-011 1.19021e-014 -4.13472e-013 -1.0614e-010 1.90833e-014 -7.21191e-013 -6.14539e-011 1.43125e-014 -4.23014e-013 7.73091 5.47488 0.417314 -6.14556e-011 1.22253e-014 -4.10292e-013 2.90554 0.965183 0.102902 -6.14445e-011 1.22253e-014 -4.12677e-013 10.2786 0.731801 0.0259123 -6.14585e-011 1.07344e-014 -4.07111e-013 2.22167 -0.733487 -0.20892 -6.3103e-015 3.88251e-019 -1.98785e-016 -1.33988e-013 2.60905e-016 -2.38542e-015 -2.27753e-012 -6.77657e-013 -9.54166e-015 -2.60508e-011 6.91746e-013 -1.81292e-013 -6.14505e-011 2.47612e-014 -4.16653e-013 -1.06116e-010 3.81667e-014 -7.07673e-013 -6.14551e-011 2.54444e-014 -4.16653e-013 -7.73091 5.47488 -0.417314 -6.14511e-011 2.52457e-014 -4.16653e-013 -2.90554 0.965183 -0.102902 -6.14598e-011 2.5345e-014 -4.11087e-013 -10.2786 0.731801 -0.0259123 -6.14487e-011 2.34566e-014 -4.19833e-013 -2.22167 -0.733487 0.20892 -2.03217e-016 0 -3.88251e-019 0.1724 -2.4816 -0.0258961 -0.00786768 -1.0571 -0.0680541 -0.522489 3.53839 0.132392 2.03217e-016 0 3.88251e-019 -0.875813 -4.26242 0.0710568 0.00283211 2.16851 0.0189666 0.527685 2.09369 -0.103291 
11.4901 83.9727 40.1684 0.0719226 0.225928 -0.164529 -0.808563 0.961627 -0.227496 0.741506 -0.98335 -0.0775328 -0.315203 1.17256 -0.342204 -0.89255 -0.99499 -0.644273 -0 0 0 -0 0 0 -5.65612e-015 -1.49133e-014 6.26482e-015 22.5702 1.38012 1.08251 -2.70575 -1.03065 4.41746 0.0245982 3.48176 0.486076 -2.16623e-010 1.32748e-010 5.47387e-011 -3.73743e-010 2.29136e-010 9.60122e-011 -2.1662e-010 1.32751e-010 5.47262e-011 7.73091 5.47488 0.417314 -2.16623e-010 1.32748e-010 5.47409e-011 2.90554 0.965183 0.102902 -2.16611e-010 1.32748e-010 5.47394e-011 10.2786 0.731801 0.0259123 -2.16625e-010 1.32747e-010 5.47449e-011 2.22167 -0.733487 -0.20892 -5.68663e-015 -1.49136e-014 5.99266e-015 -24.2467 0.793825 1.45031 5.20146 -2.59851 -7.85269 -0.00385222 1.37682 -0.193297 -2.39638e-010 -2.75857e-010 -9.53605e-011 -4.15001e-010 -4.7767e-010 -1.6353e-010 -2.39643e-010 -2.75856e-010 -9.53568e-011 -7.73091 5.47488 -0.417314 -2.39639e-010 -2.75857e-010 -9.53614e-011 -2.90554 0.965183 -0.102902 -2.39648e-010 -2.75857e-010 -9.53555e-011 -10.2786 0.731801 -0.0259123 -2.39637e-010 -2.75858e-010 -9.53655e-011 -2.22167 -0.733487 0.20892 -2.03217e-016 0 -3.88251e-019 -0.495569 -3.02512 0.349523 0.000935927 4.11927 0.0485312 -0.821339 -0.502702 -3.6274 2.03217e-016 0 3.88251e-019 -0.223793 -3.21605 0.477989 -0.00486651 5.36376 -0.0497354 0.557331 -2.36994 0.887318 
11.4786 83.9691 40.1102 -0.223911 0.466126 -0.333752 -1.16508 1.96874 -0.45698 1.65945 -2.02095 -0.13688 -0.62039 2.41024 -0.709546 -1.88737 -2.07604 -1.33982 -0 0 0 -0 0 0 -5.2507e-015 -3.14203e-014 1.33931e-014 46.3731 2.8246 2.21787 -5.39118 -2.09832 9.08753 -0.0141554 7.17394 1.00766 -3.81308e-010 2.81181e-010 1.11913e-010 -6.5776e-010 4.85391e-010 1.96293e-010 -3.81305e-010 2.81184e-010 1.11897e-010 7.73091 5.47488 0.417314 -3.81307e-010 2.81181e-010 1.11914e-010 2.90554 0.965183 0.102902 -3.81296e-010 2.81182e-010 1.11914e-010 10.2786 0.731801 0.0259123 -3.81308e-010 2.8118e-010 1.11919e-010 2.22167 -0.733487 -0.20892 -5.31629e-015 -3.1421e-014 1.31477e-014 -49.9221 1.62052 2.99847 9.93322 -5.18279 -16.2054 0.00218726 2.8318 -0.397947 -4.31073e-010 -5.82733e-010 -1.90718e-010 -7.46823e-010 -1.00902e-009 -3.26928e-010 -4.3108e-010 -5.82731e-010 -1.9071e-010 -7.73091 5.47488 -0.417314 -4.31074e-010 -5.82734e-010 -1.9072e-010 -2.90554 0.965183 -0.102902 -4.31084e-010 -5.82733e-010 -1.90714e-010 -10.2786 0.731801 -0.0259123 -4.31073e-010 -5.82734e-010 -1.90725e-010 -2.22167 -0.733487 0.20892 -2.03217e-016 0 -3.88251e-019 -1.19208 -3.59311 0.748653 -0.0128682 9.58633 0.17395 -1.7144 -4.73904 -7.62869 2.03217e-016 0 3.88251e-019 0.450401 -2.10391 0.90629 -0.00457167 8.73798 -0.123297 0.75825 -7.08948 1.95164 
11.4791 83.9692 40.0587 -0.48373 0.679211 -0.481606 -1.47898 2.88886 -0.656824 2.47388 -2.94372 -0.188622 -0.903524 3.51717 -1.02833 -2.74484 -2.98346 -1.93515 -0 0 0 -0 0 0 -4.34246e-015 -4.47406e-014 1.85957e-014 67.554 4.13444 3.25507 -7.64464 -3.01853 13.269 -0.105953 10.4423 1.48005 -5.26957e-010 3.9822e-010 1.65043e-010 -9.0895e-010 6.87371e-010 2.89479e-010 -5.26953e-010 3.98223e-010 1.65025e-010 7.73091 5.47488 0.417314 -5.26957e-010 3.9822e-010 1.65043e-010 2.90554 0.965183 0.102902 -5.26945e-010 3.9822e-010 1.65044e-010 10.2786 0.731801 0.0259123 -5.26957e-010 3.98219e-010 1.65049e-010 2.22167 -0.733487 -0.20892 -4.43929e-015 -4.47416e-014 1.83755e-014 -72.8608 2.37537 4.35427 13.5204 -7.21105 -23.7328 0.0163743 4.13027 -0.581235 -5.96012e-010 -8.2762e-010 -2.85248e-010 -1.03277e-009 -1.43309e-009 -4.89173e-010 -5.9602e-010 -8.27618e-010 -2.85237e-010 -7.73091 5.47488 -0.417314 -5.96014e-010 -8.27622e-010 -2.85251e-010 -2.90554 0.965183 -0.102902 -5.96024e-010 -8.2762e-010 -2.85244e-010 -10.2786 0.731801 -0.0259123 -5.96013e-010 -8.27622e-010 -2.85257e-010 -2.22167 -0.733487 0.20892 -2.03217e-016 0 -3.88251e-019 -1.81009 -4.11158 1.10169 -0.0461124 14.4718 0.29052 -3.01199 -8.42475 -11.2692 2.03217e-016 0 3.88251e-019 1.03566 -1.12335 1.29023 0.00315123 11.7542 -0.190452 1.08643 -11.2837 2.92266 
11.4962 83.9713 40.0004 -0.656249 0.824531 -0.576007 -1.70167 3.59164 -0.781882 3.0337 -3.57945 -0.221147 -1.16216 4.29772 -1.22404 -3.20629 -3.45848 -2.2773 -0 0 0 -0 0 0 -2.17714e-015 -5.00939e-014 1.89839e-014 82.2853 5.11294 4.0402 -9.14804 -3.63946 16.2132 -0.200501 12.6539 1.80817 -6.25017e-010 4.36771e-010 2.08062e-010 -1.07808e-009 7.53664e-010 3.64927e-010 -6.25014e-010 4.36775e-010 2.08043e-010 7.73091 5.47488 0.417314 -6.25017e-010 4.36772e-010 2.08062e-010 2.90554 0.965183 0.102902 -6.25007e-010 4.36772e-010 2.08063e-010 10.2786 0.731801 0.0259123 -6.25018e-010 4.36771e-010 2.08069e-010 2.22167 -0.733487 -0.20892 -2.29565e-015 -5.00951e-014 1.87852e-014 -88.8734 2.9565 5.22611 15.6944 -8.40634 -29.0301 0.0312267 5.03766 -0.709846 -6.94713e-010 -9.17534e-010 -3.7771e-010 -1.20404e-009 -1.58893e-009 -6.48539e-010 -6.94721e-010 -9.17532e-010 -3.77697e-010 -7.73091 5.47488 -0.417314 -6.94715e-010 -9.17537e-010 -3.77713e-010 -2.90554 0.965183 -0.102902 -6.94725e-010 -9.17535e-010 -3.77707e-010 -10.2786 0.731801 -0.0259123 -6.94714e-010 -9.17536e-010 -3.77719e-010 -2.22167 -0.733487 0.20892 -2.03217e-016 0 -3.88251e-019 -2.2467 -4.50675 1.33848 -0.0819165 17.9037 0.375953 -4.19238 -10.899 -13.8656 2.03217e-016 0 3.88251e-019 1.43021 -0.471559 1.56401 0.0128418 13.8755 -0.238628 1.39501 -14.1785 3.60359 
11.4909 83.9686 39.9191 -0.702484 0.874662 -0.590374 -1.81158 3.97696 -0.805112 3.24218 -3.81257 -0.227603 -1.43303 4.61121 -1.24765 -3.04554 -3.33543 -2.25803 -0 0 0 -0 0 0 4.44122e-015 -4.26444e-014 1.19508e-014 88.037 5.63032 4.45706 -9.74285 -3.88879 17.413 -0.23971 13.3881 1.91923 -6.87266e-010 3.69873e-010 2.21684e-010 -1.18571e-009 6.37691e-010 3.89566e-010 -6.87263e-010 3.69878e-010 2.21667e-010 7.73091 5.47488 0.417314 -6.87266e-010 3.69874e-010 2.21684e-010 2.90554 0.965183 0.102902 -6.87259e-010 3.69874e-010 2.21685e-010 10.2786 0.731801 0.0259123 -6.87268e-010 3.69874e-010 2.21692e-010 2.22167 -0.733487 -0.20892 4.30948e-015 -4.26453e-014 1.17726e-014 -95.1504 3.28854 5.41971 16.4739 -8.81209 -31.1053 0.0383634 5.40728 -0.76238 -7.27447e-010 -7.80429e-010 -4.88917e-010 -1.2611e-009 -1.35189e-009 -8.41237e-010 -7.27453e-010 -7.80427e-010 -4.88905e-010 -7.73091 5.47488 -0.417314 -7.27447e-010 -7.80431e-010 -4.8892e-010 -2.90554 0.965183 -0.102902 -7.27457e-010 -7.8043e-010 -4.88915e-010 -10.2786 0.731801 -0.0259123 -7.27446e-010 -7.8043e-010 -4.88926e-010 -2.22167 -0.733487 0.20892 -2.03217e-016 0 -3.88251e-019 -2.44158 -4.72296 1.41264 -0.0993692 19.2986 0.410672 -4.70482 -11.8079 -14.8901 2.03217e-016 0 3.88251e-019 1.56604 -0.271139 1.68005 0.0176558 14.7355 -0.258045 1.51863 -15.2605 3.83159 
